<svg width="22" height="22" viewBox="0 0 22 22" fill="none" xmlns="http://www.w3.org/2000/svg">
<path d="M2.75 9.54859C2.75 6.61709 2.75 5.15134 3.0965 4.65817C3.44208 4.16592 4.81983 3.69384 7.57625 2.75059L8.1015 2.57092C9.53792 2.07867 10.2557 1.83301 11 1.83301C11.7434 1.83301 12.4621 2.07867 13.8985 2.57092L14.4237 2.75059C17.1802 3.69384 18.5579 4.16592 18.9035 4.65817C19.25 5.15134 19.25 6.61801 19.25 9.54859V10.9914C19.25 16.1596 15.3643 18.6685 12.9259 19.7328C12.265 20.0215 11.935 20.1663 11 20.1663C10.065 20.1663 9.735 20.0215 9.07408 19.7328C6.63575 18.6676 2.75 16.1605 2.75 10.9914V9.54859Z" stroke="#8B909A" stroke-width="1.5"/>
<path d="M10.5431 14.6663H11.4598C11.7029 14.6663 11.9361 14.5698 12.108 14.3979C12.2799 14.226 12.3765 13.9928 12.3765 13.7497V12.4654C12.9019 12.1634 13.3127 11.6962 13.5452 11.1365C13.7776 10.5769 13.8186 9.95607 13.6618 9.37069C13.505 8.7853 13.1591 8.26815 12.678 7.89964C12.1969 7.53113 11.6075 7.33193 11.0015 7.33301C10.3958 7.33269 9.80702 7.53231 9.32644 7.90088C8.84587 8.26945 8.5004 8.78636 8.34368 9.37137C8.18695 9.95638 8.22773 10.5768 8.45968 11.1362C8.69163 11.6957 9.10178 12.1629 9.62647 12.4654V13.7497C9.62647 13.9928 9.72305 14.226 9.89495 14.3979C10.0669 14.5698 10.3 14.6663 10.5431 14.6663Z" stroke="#8B909A" stroke-width="1.5" stroke-linejoin="round"/>
</svg>
