<svg width="24" height="24" viewBox="0 0 24 24" fill="none" xmlns="http://www.w3.org/2000/svg">
<path d="M22 12C22 15.771 22 17.657 20.796 18.828C19.592 20 17.654 20 13.78 20H11.143C8.916 20 7.802 20 6.873 19.499C5.943 18.997 5.353 18.079 4.172 16.24L3.491 15.18C2.497 13.634 2 12.86 2 12C2 11.14 2.497 10.366 3.49 8.82L4.17 7.76C5.351 5.922 5.941 5.003 6.871 4.501C7.801 4 8.915 4 11.142 4H13.779C17.654 4 19.592 4 20.796 5.172C21.467 5.825 21.764 6.7 21.896 8M15.5 9.5L10.5 14.5M10.5 9.5L15.5 14.5" stroke="#40444E" stroke-width="1.5" stroke-linecap="round"/>
</svg>
