<svg width="18" height="18" viewBox="0 0 18 18" fill="none"
    xmlns="http://www.w3.org/2000/svg">
    <path fill-rule="evenodd" clip-rule="evenodd" d="M9 1.5C6.17175 1.5 4.75725 1.5 3.879 2.379C3.081 3.17625 3.0075 4.4145 3 6.75H2.25C2.05109 6.75 1.86032 6.82902 1.71967 6.96967C1.57902 7.11032 1.5 7.30109 1.5 7.5V8.25C1.5 8.36643 1.52711 8.48127 1.57918 8.58541C1.63125 8.68955 1.70685 8.78014 1.8 8.85L3 9.75C3.0075 12.0855 3.081 13.3237 3.879 14.121C4.0605 14.3032 4.2645 14.4473 4.5 14.5613V15.75C4.5 15.9489 4.57902 16.1397 4.71967 16.2803C4.86032 16.421 5.05109 16.5 5.25 16.5H6.375C6.57391 16.5 6.76468 16.421 6.90533 16.2803C7.04598 16.1397 7.125 15.9489 7.125 15.75V14.9865C7.67025 15 8.2905 15 9 15C9.7095 15 10.3298 15 10.875 14.9865V15.75C10.875 15.9489 10.954 16.1397 11.0947 16.2803C11.2353 16.421 11.4261 16.5 11.625 16.5H12.75C12.9489 16.5 13.1397 16.421 13.2803 16.2803C13.421 16.1397 13.5 15.9489 13.5 15.75V14.5613C13.7304 14.4506 13.9403 14.3017 14.121 14.121C14.919 13.3237 14.9932 12.0855 15 9.75L16.2 8.85C16.2931 8.78014 16.3687 8.68955 16.4208 8.58541C16.4729 8.48127 16.5 8.36643 16.5 8.25V7.5C16.5 7.30109 16.421 7.11032 16.2803 6.96967C16.1397 6.82902 15.9489 6.75 15.75 6.75H15C14.9925 4.4145 14.919 3.17625 14.121 2.379C13.2427 1.5 11.8282 1.5 9 1.5ZM4.125 7.125C4.125 8.1855 4.125 8.71575 4.455 9.045C4.78425 9.375 5.3145 9.375 6.375 9.375H11.625C12.6855 9.375 13.2157 9.375 13.545 9.045C13.875 8.71575 13.875 8.1855 13.875 7.125V5.25C13.875 4.1895 13.875 3.65925 13.545 3.33C13.2165 3 12.6862 3 11.625 3H6.375C5.3145 3 4.78425 3 4.455 3.33C4.125 3.6585 4.125 4.18875 4.125 5.25V7.125ZM4.6875 12C4.6875 11.8508 4.74676 11.7077 4.85225 11.6023C4.95774 11.4968 5.10082 11.4375 5.25 11.4375H6.375C6.52418 11.4375 6.66726 11.4968 6.77275 11.6023C6.87824 11.7077 6.9375 11.8508 6.9375 12C6.9375 12.1492 6.87824 12.2923 6.77275 12.3977C6.66726 12.5032 6.52418 12.5625 6.375 12.5625H5.25C5.10082 12.5625 4.95774 12.5032 4.85225 12.3977C4.74676 12.2923 4.6875 12.1492 4.6875 12ZM13.3125 12C13.3125 11.8508 13.2532 11.7077 13.1477 11.6023C13.0423 11.4968 12.8992 11.4375 12.75 11.4375H11.625C11.4758 11.4375 11.3327 11.4968 11.2273 11.6023C11.1218 11.7077 11.0625 11.8508 11.0625 12C11.0625 12.1492 11.1218 12.2923 11.2273 12.3977C11.3327 12.5032 11.4758 12.5625 11.625 12.5625H12.75C12.8992 12.5625 13.0423 12.5032 13.1477 12.3977C13.2532 12.2923 13.3125 12.1492 13.3125 12Z" fill="#72788D"/>
</svg>
