<svg width="22" height="22" viewBox="0 0 22 22" fill="none" xmlns="http://www.w3.org/2000/svg">
<path d="M19.1717 8.76727C19.2201 8.6572 19.2464 8.53866 19.2489 8.41843C19.2515 8.2982 19.2304 8.17865 19.1867 8.06661C19.143 7.95457 19.0777 7.85223 18.9944 7.76547C18.9111 7.6787 18.8116 7.6092 18.7014 7.56094L6.71603 2.2846C5.80395 1.8831 4.68103 2.33135 4.29145 3.23977L2.26561 7.96427C2.07503 8.41117 2.06953 8.91543 2.25032 9.36638C2.43111 9.81733 2.78343 10.1781 3.22995 10.3696L8.76478 12.7419L7.62811 15.5836H3.66536V12.8336H1.83203V20.1669H3.66536V17.4169H7.62811C8.38253 17.4169 9.05078 16.9641 9.32945 16.2638L10.4496 13.4643L15.2209 15.5084C15.4431 15.6038 15.6939 15.6075 15.9189 15.5187C16.1438 15.43 16.3245 15.2559 16.4217 15.0345L16.7077 14.3837L18.2669 15.007L20.1003 10.4237L18.6923 9.86177L19.1717 8.76727ZM15.1072 13.4661L3.95228 8.68569L5.97628 3.96302L17.1248 8.87085L15.1072 13.4661Z" fill="#8B909A"/>
</svg>
