<svg width="50" height="50" viewBox="0 0 50 50" fill="none" xmlns="http://www.w3.org/2000/svg">
<path fill-rule="evenodd" clip-rule="evenodd" d="M23.4375 7.8125V3.125H26.5625V7.8125H23.4375ZM32.2407 9.33408L34.5844 5.27458L37.2908 6.83708L34.947 10.8966L32.2407 9.33408ZM25 35.9375C31.0406 35.9375 35.9375 31.0406 35.9375 25C35.9375 18.9594 31.0406 14.0625 25 14.0625C18.9594 14.0625 14.0625 18.9594 14.0625 25C14.0625 31.0406 18.9594 35.9375 25 35.9375ZM25 39.0625C32.7665 39.0625 39.0625 32.7665 39.0625 25C39.0625 17.2335 32.7665 10.9375 25 10.9375C17.2335 10.9375 10.9375 17.2335 10.9375 25C10.9375 32.7665 17.2335 39.0625 25 39.0625ZM42.1875 23.4375H46.875V26.5625H42.1875V23.4375ZM43.163 12.7093L39.1035 15.0531L40.666 17.7594L44.7255 15.4157L43.163 12.7093ZM12.7093 6.83708L15.0531 10.8966L17.7594 9.33408L15.4157 5.27458L12.7093 6.83708ZM9.33398 17.7594L5.27449 15.4157L6.83699 12.7093L10.8965 15.0531L9.33398 17.7594ZM23.4375 42.1875V46.875H26.5625V42.1875H23.4375ZM7.8125 23.4375H3.125V26.5625H7.8125V23.4375ZM5.2744 34.5843L9.3339 32.2406L10.8964 34.9469L6.8369 37.2907L5.2744 34.5843ZM15.0532 39.1037L12.7094 43.1632L15.4158 44.7257L17.7595 40.6662L15.0532 39.1037ZM34.5843 44.7257L32.2406 40.6662L34.9469 39.1037L37.2907 43.1632L34.5843 44.7257ZM39.1036 34.9469L43.1631 37.2907L44.7256 34.5843L40.6661 32.2406L39.1036 34.9469Z" fill="url(#paint0_linear_1018_3281)"/>
<defs>
<linearGradient id="paint0_linear_1018_3281" x1="25" y1="3.125" x2="25" y2="46.875" gradientUnits="userSpaceOnUse">
<stop stop-color="#EFC977"/>
<stop offset="1" stop-color="#E07256"/>
</linearGradient>
</defs>
</svg>
