<svg width="50" height="50" viewBox="0 0 50 50" fill="none" xmlns="http://www.w3.org/2000/svg">
<path fill-rule="evenodd" clip-rule="evenodd" d="M18.0184 12.5874C18.5715 12.5296 19.1326 12.5 19.7004 12.5C27.2952 12.5 33.697 17.7965 35.6578 25.0217C35.8148 25.0115 35.9727 25.0048 36.1314 25.0019C36.0669 25.0007 36.0022 25.0002 35.9375 25.0002L35.8851 25.0003L35.885 25H38.2812H38.3753V24.9992C41.3522 24.949 43.7499 22.5201 43.7499 19.5312C43.7499 16.5109 41.3015 14.0625 38.2812 14.0625C37.2671 14.0625 36.3175 14.3385 35.5034 14.8195C35.5009 13.9465 35.3684 13.1041 35.124 12.3107C33.9065 8.78354 30.5573 6.25 26.6164 6.25C22.5732 6.25 19.1528 8.91681 18.0184 12.5874ZM42.4635 27.0404C45.1346 29.0248 46.875 32.2704 46.875 35.9375C46.875 41.9781 42.1525 46.8749 36.327 46.8749C36.1966 46.8749 36.0668 46.8725 35.9375 46.8676V46.875H19.9486V46.8731C19.866 46.8744 19.7833 46.875 19.7004 46.875C10.5461 46.875 3.125 39.1799 3.125 29.6875C3.125 22.0224 7.96396 15.5292 14.6471 13.3134C15.5733 7.5376 20.5795 3.125 26.6164 3.125C31.7959 3.125 36.2167 6.37319 37.9529 10.9437C38.0619 10.9396 38.1713 10.9375 38.2812 10.9375C43.0274 10.9375 46.8749 14.7851 46.8749 19.5312C46.8749 22.7592 45.0952 25.5715 42.4635 27.0404ZM35.9375 43.75H19.9486H19.7688V43.7498L19.7004 43.75C12.3778 43.75 6.25 37.5618 6.25 29.6875C6.25 21.8132 12.3778 15.625 19.7004 15.625C25.9123 15.625 31.2643 20.0782 32.7451 26.2362L32.7498 26.2342C32.9589 27.0886 33.0923 27.9745 33.1419 28.8836C34.1155 28.3956 35.1987 28.125 36.327 28.125C40.3208 28.125 43.75 31.515 43.75 35.9375C43.75 40.329 40.3687 43.7024 36.4109 43.7494V43.75H35.9375Z" fill="url(#paint0_linear_1032_3143)"/>
<defs>
<linearGradient id="paint0_linear_1032_3143" x1="25" y1="3.125" x2="25" y2="46.875" gradientUnits="userSpaceOnUse">
<stop stop-color="#B2D4F7"/>
<stop offset="1" stop-color="#D9E2F3"/>
</linearGradient>
</defs>
</svg>
