<svg width="18" height="18" viewBox="0 0 18 18" fill="none" xmlns="http://www.w3.org/2000/svg">
<g clip-path="url(#clip0_1112_3239)">
<path d="M1.5 9C1.5 12.5355 1.5 14.3032 2.598 15.4012C3.6975 16.5 5.4645 16.5 9 16.5C12.5355 16.5 14.3032 16.5 15.4012 15.4012C16.5 14.304 16.5 12.5355 16.5 9V7.875M10.125 1.5H9C5.4645 1.5 3.69675 1.5 2.598 2.598C1.86825 3.3285 1.623 4.35525 1.54125 6" stroke="#40444E" stroke-width="1.5" stroke-linecap="round"/>
<path d="M12.4895 2.59134L12.9763 2.10459C13.3635 1.71741 13.8888 1.49993 14.4364 1.5C14.984 1.50007 15.5092 1.71768 15.8964 2.10497C16.2836 2.49225 16.501 3.01748 16.501 3.56511C16.5009 4.11274 16.2833 4.63791 15.896 5.02509L15.4085 5.51184C15.4085 5.51184 14.375 5.45109 13.463 4.53834C12.5503 3.62634 12.4895 2.59209 12.4895 2.59209L8.01575 7.06509C7.71275 7.36809 7.56125 7.51959 7.43075 7.68684C7.277 7.88334 7.14575 8.09709 7.03775 8.32284C6.947 8.51409 6.8795 8.71734 6.74375 9.12384L6.3095 10.4251M6.3095 10.4251L6.029 11.2666C5.99601 11.3647 5.99106 11.4701 6.01469 11.5709C6.03833 11.6717 6.08961 11.764 6.16279 11.8372C6.23596 11.9105 6.32812 11.9618 6.4289 11.9856C6.52967 12.0093 6.63508 12.0045 6.73325 11.9716L7.57551 11.6911M6.3095 10.4251L7.57551 11.6911M15.4093 5.51109L13.172 7.74759M10.9355 9.98484C10.6325 10.2878 10.481 10.4393 10.3138 10.5698C10.1167 10.7235 9.90339 10.8553 9.67775 10.9628C9.4865 11.0536 9.28325 11.1211 8.87675 11.2568L7.57551 11.6911" stroke="#40444E" stroke-width="1.5" stroke-linecap="round"/>
</g>
<defs>
<clipPath id="clip0_1112_3239">
<rect width="18" height="18" fill="white"/>
</clipPath>
</defs>
</svg>
