<svg width="18" height="18" viewBox="0 0 18 18" fill="none" xmlns="http://www.w3.org/2000/svg">
<path d="M15.375 4.5H2.625M7.125 8.25L7.5 12M10.875 8.25L10.5 12" stroke="#40444E" stroke-width="1.5" stroke-linecap="round"/>
<path d="M4.875 4.5H4.9575C5.25933 4.49229 5.55182 4.39367 5.79669 4.21703C6.04157 4.0404 6.22744 3.79398 6.33 3.51L6.3555 3.43275L6.42825 3.2145C6.4905 3.02775 6.522 2.93475 6.56325 2.85525C6.64441 2.69954 6.76088 2.56499 6.90336 2.46237C7.04583 2.35974 7.21035 2.2919 7.38375 2.26425C7.4715 2.25 7.56975 2.25 7.76625 2.25H10.2338C10.4303 2.25 10.5285 2.25 10.6162 2.26425C10.7896 2.2919 10.9542 2.35974 11.0966 2.46237C11.2391 2.56499 11.3556 2.69954 11.4367 2.85525C11.478 2.93475 11.5095 3.02775 11.5717 3.2145L11.6445 3.43275C11.7395 3.7487 11.9361 4.02451 12.2038 4.21745C12.4714 4.41039 12.7952 4.5097 13.125 4.5" stroke="#40444E" stroke-width="1.5"/>
<path d="M13.7795 11.55C13.6467 13.5405 13.5808 14.5358 12.932 15.1425C12.2833 15.75 11.2858 15.75 9.29 15.75H8.7095C6.7145 15.75 5.717 15.75 5.0675 15.1425C4.41875 14.5358 4.35275 13.5405 4.22 11.55L3.875 6.375M14.1245 6.375L13.9745 8.625" stroke="#40444E" stroke-width="1.5" stroke-linecap="round"/>
</svg>
