<svg width="18" height="18" viewBox="0 0 18 18" fill="none" xmlns="http://www.w3.org/2000/svg">
<path d="M14.6865 13.89C15.8589 12.5308 16.5026 10.795 16.5 9.00001C16.5026 7.20507 15.8589 5.46919 14.6865 4.11001L11.4818 7.31401C11.8204 7.81097 12.001 8.39864 12 9.00001C12 9.62551 11.8088 10.2053 11.4818 10.686L14.6865 13.89ZM13.89 14.6865C12.5308 15.8589 10.795 16.5026 9.00001 16.5C7.20507 16.5026 5.46919 15.8589 4.11001 14.6865L7.31401 11.4818C7.81097 11.8204 8.39864 12.001 9.00001 12C9.62551 12 10.2053 11.8088 10.686 11.4818L13.89 14.6865ZM3.31351 13.89L6.51826 10.686C6.17966 10.189 5.99903 9.60138 6.00001 9.00001C6.00001 8.37451 6.19126 7.79476 6.51826 7.31401L3.31351 4.10926C2.14097 5.46864 1.49719 7.20481 1.50001 9.00001C1.49737 10.795 2.14114 12.5308 3.31351 13.89ZM9.00001 6.00001C8.37451 6.00001 7.79476 6.19126 7.31401 6.51826L4.10926 3.31351C5.46864 2.14097 7.20481 1.49719 9.00001 1.50001C10.795 1.49737 12.5308 2.14114 13.89 3.31351L10.686 6.51826C10.189 6.17966 9.60138 5.99903 9.00001 6.00001Z" fill="#72788D"/>
</svg>
