<svg width="22" height="22" viewBox="0 0 22 22" fill="none" xmlns="http://www.w3.org/2000/svg">
<path d="M8.25 14.666C9.02917 15.2435 9.97792 15.5827 11 15.5827C12.0221 15.5827 12.9708 15.2435 13.75 14.666" stroke="#8B909A" stroke-width="1.5" stroke-linecap="round"/>
<path d="M20.1654 11.1867V12.5809C20.1654 16.1559 20.1654 17.9443 19.091 19.0553C18.0176 20.1663 16.2888 20.1663 12.832 20.1663H9.16536C5.70861 20.1663 3.97978 20.1663 2.90636 19.0553C1.83203 17.9443 1.83203 16.1568 1.83203 12.5809V11.1867C1.83203 9.08843 1.83203 8.03976 2.3087 7.17076C2.78353 6.30084 3.65345 5.76184 5.39236 4.68201L7.2257 3.54442C9.06361 2.40317 9.98303 1.83301 10.9987 1.83301C12.0144 1.83301 12.9329 2.40317 14.7717 3.54442L16.605 4.68201C18.3439 5.76184 19.2139 6.30084 19.6896 7.17076" stroke="#8B909A" stroke-width="1.5" stroke-linecap="round"/>
</svg>
