<svg width="22" height="22" viewBox="0 0 22 22" fill="none" xmlns="http://www.w3.org/2000/svg">
<path d="M16.4987 15.5097C17.5437 15.4189 18.2605 15.2136 18.8252 14.7507C19.0104 14.5985 19.1809 14.428 19.333 14.2428C20.1654 13.2272 20.1654 11.722 20.1654 8.70801C20.1654 5.69492 20.1654 4.18792 19.333 3.17317C19.1808 2.98769 19.0107 2.81759 18.8252 2.66534C17.8095 1.83301 16.3044 1.83301 13.2904 1.83301H8.70703C5.69395 1.83301 4.18695 1.83301 3.1722 2.66534C2.98671 2.81759 2.81662 2.98769 2.66436 3.17317C1.83203 4.18884 1.83203 5.69401 1.83203 8.70801C1.83203 11.7211 1.83203 13.2281 2.66436 14.2428C2.81662 14.4283 2.98671 14.5984 3.1722 14.7507C3.73686 15.2136 4.4537 15.4198 5.4987 15.5106M18.7904 14.208L12.832 9.62467M12.832 9.62467L18.7904 3.20801M12.832 9.62467L8.70703 6.67851M3.20703 2.74967L5.95703 4.71409" stroke="#8B909A" stroke-width="1.5" stroke-linecap="round"/>
<path d="M13.9941 17.5997L12.7703 15.1522C11.9976 13.6048 11.6117 12.833 10.9993 12.833C10.387 12.833 10.0011 13.6058 9.22833 15.1522L8.00458 17.5997C7.53525 18.5383 7.30058 19.0086 7.33542 19.3038C7.38767 19.73 7.7085 20.0756 8.13108 20.1563C8.42258 20.2131 8.9075 20.0123 9.87733 19.6108C10.2348 19.4623 10.4154 19.3881 10.5988 19.3505C10.8628 19.2955 11.1359 19.2955 11.3999 19.3505C11.5833 19.3881 11.7629 19.4623 12.1213 19.6108C13.0912 20.0123 13.5752 20.2131 13.8676 20.1572C14.2893 20.0747 14.6101 19.7309 14.6623 19.3038C14.699 19.0077 14.4634 18.5374 13.9941 17.5997Z" stroke="#8B909A" stroke-width="1.5"/>
</svg>
