<svg width="22" height="22" viewBox="0 0 22 22" fill="none" xmlns="http://www.w3.org/2000/svg">
<path d="M9.16536 20.1663C5.70861 20.1663 3.97978 20.1663 2.90636 19.092C1.83203 18.0186 1.83203 17.2064 1.83203 13.7497M20.1654 13.7497C20.1654 17.2064 20.1654 18.0186 19.091 19.092C18.0176 20.1663 16.2888 20.1663 12.832 20.1663M12.832 1.83301C16.2888 1.83301 18.0176 1.83301 19.091 2.90734C20.1654 3.98076 20.1654 4.79292 20.1654 8.24967M9.16536 1.83301C5.70861 1.83301 3.97978 1.83301 2.90636 2.90734C1.83203 3.98076 1.83203 4.79292 1.83203 8.24967" stroke="#8B909A" stroke-width="1.5" stroke-linecap="round"/>
<path d="M5.3997 12.8877C4.85428 12.2552 4.58203 11.9389 4.58203 10.9993C4.58203 10.0598 4.85428 9.74352 5.3997 9.11102C6.4887 7.84785 8.3147 6.41602 10.9987 6.41602C13.6818 6.41602 15.5087 7.84785 16.5977 9.11102C17.1431 9.74352 17.4154 10.0598 17.4154 10.9993C17.4154 11.9389 17.1431 12.2552 16.5977 12.8877C15.5087 14.1508 13.6827 15.5827 10.9987 15.5827C8.31561 15.5827 6.4887 14.1508 5.3997 12.8877Z" stroke="#8B909A" stroke-width="1.5"/>
<path d="M10.9974 12.8327C12.0099 12.8327 12.8307 12.0119 12.8307 10.9993C12.8307 9.98683 12.0099 9.16602 10.9974 9.16602C9.98487 9.16602 9.16406 9.98683 9.16406 10.9993C9.16406 12.0119 9.98487 12.8327 10.9974 12.8327Z" stroke="#8B909A" stroke-width="1.5"/>
</svg>
