<svg width="22" height="22" viewBox="0 0 22 22" fill="currentColor"
    xmlns="http://www.w3.org/2000/svg">
    <path fill="currentColor" fill-rule="evenodd" clip-rule="evenodd" d="M14.7805 10.9994C14.7805 10.817 14.708 10.6422 14.5791 10.5132C14.4502 10.3843 14.2753 10.3119 14.093 10.3119H4.03438L5.83196 8.77186C5.90058 8.71311 5.95695 8.64143 5.99786 8.5609C6.03877 8.48037 6.06342 8.39256 6.0704 8.30251C6.07738 8.21245 6.06656 8.1219 6.03854 8.03603C6.01053 7.95015 5.96587 7.87064 5.90713 7.80202C5.84838 7.73341 5.7767 7.67703 5.69617 7.63612C5.61564 7.59521 5.52783 7.57056 5.43778 7.56358C5.34772 7.5566 5.25717 7.56743 5.1713 7.59544C5.08542 7.62346 5.00591 7.66811 4.93729 7.72686L1.72896 10.4769C1.65349 10.5414 1.59289 10.6215 1.55134 10.7117C1.5098 10.8019 1.48828 10.9 1.48828 10.9994C1.48828 11.0987 1.5098 11.1968 1.55134 11.287C1.59289 11.3772 1.65349 11.4573 1.72896 11.5219L4.93729 14.2719C5.07587 14.3905 5.2559 14.4492 5.43778 14.4351C5.61966 14.421 5.78849 14.3353 5.90713 14.1967C6.02577 14.0581 6.0845 13.8781 6.0704 13.6962C6.0563 13.5143 5.97053 13.3455 5.83196 13.2269L4.03529 11.6869H14.093C14.2753 11.6869 14.4502 11.6144 14.5791 11.4855C14.708 11.3566 14.7805 11.1817 14.7805 10.9994Z"/>
    <path fill="currentColor" d="M8.59375 7.33301C8.59375 7.97651 8.59375 8.29826 8.74867 8.53017C8.81539 8.62989 8.90104 8.71554 9.00075 8.78226C9.23267 8.93717 9.55442 8.93717 10.1979 8.93717H14.0938C14.6408 8.93717 15.1654 9.15447 15.5522 9.54127C15.939 9.92806 16.1563 10.4527 16.1563 10.9997C16.1563 11.5467 15.939 12.0713 15.5522 12.4581C15.1654 12.8449 14.6408 13.0622 14.0938 13.0622H10.1979C9.55442 13.0622 9.23267 13.0622 9.00075 13.2162C8.90095 13.2832 8.81529 13.3691 8.74867 13.4692C8.59375 13.7011 8.59375 14.0228 8.59375 14.6663C8.59375 17.2587 8.59375 18.5558 9.3995 19.3606C10.2043 20.1663 11.5005 20.1663 14.0928 20.1663H15.0095C17.6037 20.1663 18.8989 20.1663 19.7047 19.3606C20.5104 18.5558 20.5104 17.2587 20.5104 14.6663V7.33301C20.5104 4.74067 20.5104 3.44359 19.7047 2.63876C18.8989 1.83301 17.6028 1.83301 15.0104 1.83301H14.0938C11.5005 1.83301 10.2043 1.83301 9.3995 2.63876C8.59375 3.44359 8.59375 4.74067 8.59375 7.33301Z"/>
</svg>
