<svg width="22" height="22" viewBox="0 0 22 22" fill="currentColor"
    xmlns="http://www.w3.org/2000/svg">
    <path d="M19.2613 3.70996L11.9719 10.9984L19.2613 18.2877C20.1669 16.9164 20.1669 14.7888 20.1669 10.9993C20.1669 7.21071 20.1669 5.08129 19.2613 3.70996ZM11.0003 11.971L3.71094 19.2603C5.08227 20.166 7.21077 20.166 10.9994 20.166C14.7898 20.166 16.9174 20.166 18.2887 19.2603L11.0003 11.971Z" fill="currentColor"/>
    <path opacity="0.5" d="M3.17403 3.17501C1.83203 4.51884 1.83203 6.67851 1.83203 10.9997C1.83203 14.7892 1.83203 16.9168 2.7377 18.289L18.288 2.73867C16.9158 1.83301 14.7882 1.83301 10.9987 1.83301C6.67753 1.83301 4.51695 1.83301 3.17403 3.17501Z" fill="currentColor"/>
</svg>
