<svg width="22" height="22" viewBox="0 0 22 22" fill="none" xmlns="http://www.w3.org/2000/svg">
<path d="M19.9831 12.8339C19.6034 14.6882 18.6595 16.3796 17.2808 17.6764C15.9021 18.9732 14.1561 19.8118 12.2822 20.0774V18.2212C13.6661 17.9744 14.9502 17.3354 15.9817 16.3803C17.0132 15.4251 17.7488 14.1939 18.1012 12.833L19.9831 12.8339ZM3.89741 12.8339C4.24578 14.1793 4.96884 15.3982 5.98252 16.3489C6.9962 17.2996 8.25889 17.9432 9.62382 18.2047V20.0637C7.76849 19.7813 6.04437 18.9368 4.68393 17.644C3.32348 16.3513 2.39214 14.6724 2.01549 12.8339H3.89741ZM16.4988 10.083V11.9163H13.7488C13.2865 11.9164 12.8412 12.0912 12.5022 12.4057C12.1633 12.7202 11.9557 13.1511 11.921 13.6122L11.9155 13.7497V16.4997H10.0822V13.7497C10.0823 13.2871 9.90762 12.8417 9.59312 12.5025C9.27862 12.1634 8.84755 11.9556 8.38632 11.9209L8.24882 11.9163H5.49974V10.083H16.4988ZM10.9988 1.83301C15.7527 1.83301 19.6613 5.45109 20.1206 10.083H18.2762C18.0542 8.30952 17.1921 6.67816 15.8521 5.49543C14.512 4.31271 12.7862 3.66004 10.9988 3.66004C9.21148 3.66004 7.48565 4.31271 6.14559 5.49543C4.80553 6.67816 3.94348 8.30952 3.72141 10.083H1.87891C2.33907 5.45109 6.24682 1.83301 10.9997 1.83301H10.9988Z" fill="#8B909A"/>
</svg>
