<svg width="18" height="18" viewBox="0 0 18 18" fill="none" xmlns="http://www.w3.org/2000/svg">
<path d="M15.75 12.6224V8.37216C15.75 7.58916 15.75 7.19766 15.5377 6.90291C15.366 6.66516 15.0907 6.53841 14.6002 6.36816C14.4997 7.57266 14.1008 8.80341 13.4738 9.87966C12.7448 11.1337 11.661 12.2549 10.2727 12.8602C9.87116 13.0348 9.43792 13.125 9 13.125C8.56208 13.125 8.12884 13.0348 7.72725 12.8602C6.339 12.2549 5.25525 11.1337 4.5255 9.87966C4.05005 9.06155 3.71206 8.17097 3.525 7.24341C3.23775 7.20066 3.018 7.22241 2.8275 7.32816C2.75186 7.37065 2.6814 7.42174 2.6175 7.48041C2.25 7.81491 2.25 8.43666 2.25 9.68091V13.3784C2.25 14.1607 2.25 14.5522 2.46225 14.8469C2.6745 15.1417 3.04575 15.2654 3.78825 15.5129L4.07625 15.6089C5.259 16.0027 5.85 16.1999 6.45525 16.2014C6.6375 16.2014 6.819 16.1887 6.99975 16.1624C7.59825 16.0762 8.16075 15.7949 9.28575 15.2324C10.1475 14.8012 10.5788 14.5859 11.0363 14.4862C11.1968 14.4509 11.3595 14.4262 11.5237 14.4127C11.991 14.3737 12.4612 14.4524 13.404 14.6092C14.3587 14.7682 14.8365 14.8477 15.1852 14.6474C15.3037 14.5799 15.4087 14.4907 15.495 14.3849C15.75 14.0737 15.75 13.5899 15.75 12.6224Z" fill="white"/>
<path fill-rule="evenodd" clip-rule="evenodd" d="M9 1.5C6.5145 1.5 4.5 3.414 4.5 5.775C4.5 8.118 5.93625 10.8518 8.17725 11.829C8.4369 11.9417 8.71694 11.9999 9 11.9999C9.28306 11.9999 9.5631 11.9417 9.82275 11.829C12.0638 10.8525 13.5 8.118 13.5 5.775C13.5 3.414 11.4855 1.5 9 1.5ZM9 7.5C9.39782 7.5 9.77936 7.34196 10.0607 7.06066C10.342 6.77936 10.5 6.39782 10.5 6C10.5 5.60218 10.342 5.22064 10.0607 4.93934C9.77936 4.65804 9.39782 4.5 9 4.5C8.60218 4.5 8.22064 4.65804 7.93934 4.93934C7.65804 5.22064 7.5 5.60218 7.5 6C7.5 6.39782 7.65804 6.77936 7.93934 7.06066C8.22064 7.34196 8.60218 7.5 9 7.5Z" fill="white"/>
</svg>
