<svg width="22" height="22" viewBox="0 0 22 22" fill="none" xmlns="http://www.w3.org/2000/svg">
<path d="M19.25 6.56508C19.25 5.609 19.25 5.1305 18.9906 4.77025C18.7312 4.41 18.2774 4.25875 17.3699 3.95625L16.302 3.60058C15.0489 3.18258 14.4228 2.97358 13.7913 3.05883C13.1606 3.14316 12.6106 3.50891 11.5115 4.24133L10.2447 5.0865C9.38667 5.6585 8.95767 5.9445 8.4755 6.05816C8.299 6.1003 8.11876 6.12487 7.93742 6.1315C7.44242 6.148 6.95383 5.98483 5.97575 5.6585C4.69425 5.23133 4.0535 5.01775 3.56583 5.235C3.39302 5.31189 3.23792 5.4236 3.11025 5.56316C2.75 5.95825 2.75 6.63291 2.75 7.98408V11.7103M19.25 10.0832V14.0157C19.25 15.3669 19.25 16.0425 18.8898 16.4357C18.7623 16.576 18.6071 16.6883 18.4342 16.7657C17.9465 16.9821 17.3058 16.7685 16.0243 16.3413C15.0462 16.015 14.5576 15.8518 14.0626 15.8692C13.881 15.8752 13.7004 15.8992 13.5236 15.9407C13.0423 16.0553 12.6133 16.3413 11.7553 16.9124L10.4885 17.7576C9.3885 18.4909 8.83942 18.8576 8.20875 18.941C7.57808 19.0262 6.95108 18.8172 5.698 18.3992L4.63008 18.0436C3.72258 17.7411 3.26883 17.5898 3.00942 17.2296C2.76375 16.8886 2.75092 16.4412 2.75 15.5832M13.75 3.20825V6.41658M13.75 15.5832V10.0832M8.25 18.7916V15.5832M8.25 6.41658V11.9166" stroke="#00A557" stroke-width="1.5" stroke-linecap="round"/>
</svg>
