<svg width="18" height="18" viewBox="0 0 18 18" fill="currentColor"
    xmlns="http://www.w3.org/2000/svg">
    <path fill-rule="evenodd" clip-rule="evenodd" d="M9.56243 1.5C9.56243 1.35082 9.50316 1.20774 9.39767 1.10225C9.29219 0.996763 9.14911 0.9375 8.99993 0.9375C8.85074 0.9375 8.70767 0.996763 8.60218 1.10225C8.49669 1.20774 8.43743 1.35082 8.43743 1.5V2.625H5.02793C4.53443 2.625 4.28843 2.625 4.06193 2.6985C3.96198 2.73082 3.8657 2.77356 3.77468 2.826C3.56918 2.946 3.40418 3.129 3.07493 3.4965C2.43743 4.20675 2.11793 4.5615 2.04068 4.977C2.00727 5.15747 2.00727 5.34253 2.04068 5.523C2.11793 5.93775 2.43668 6.29325 3.07493 7.0035C3.40493 7.371 3.56918 7.554 3.77468 7.67325C3.86618 7.72575 3.96218 7.7685 4.06193 7.80075C4.28843 7.875 4.53443 7.875 5.02793 7.875H8.43743V9.375H4.87493C3.82193 9.375 3.29468 9.375 2.91668 9.62775C2.75282 9.73722 2.61214 9.8779 2.50268 10.0417C2.24993 10.4197 2.24993 10.947 2.24993 12C2.24993 13.053 2.24993 13.5803 2.50268 13.9583C2.61214 14.1221 2.75282 14.2628 2.91668 14.3723C3.29468 14.625 3.82193 14.625 4.87493 14.625H8.43743V15.9375H7.49993C7.35074 15.9375 7.20767 15.9968 7.10218 16.1023C6.99669 16.2077 6.93743 16.3508 6.93743 16.5C6.93743 16.6492 6.99669 16.7923 7.10218 16.8977C7.20767 17.0032 7.35074 17.0625 7.49993 17.0625H10.4999C10.6491 17.0625 10.7922 17.0032 10.8977 16.8977C11.0032 16.7923 11.0624 16.6492 11.0624 16.5C11.0624 16.3508 11.0032 16.2077 10.8977 16.1023C10.7922 15.9968 10.6491 15.9375 10.4999 15.9375H9.56243V14.625H12.9719C13.4654 14.625 13.7114 14.625 13.9379 14.5515C14.0377 14.5185 14.1337 14.4765 14.2252 14.424C14.4307 14.304 14.5957 14.121 14.9249 13.7535C15.5624 13.0432 15.8819 12.6885 15.9592 12.273C15.9926 12.0925 15.9926 11.9075 15.9592 11.727C15.8819 11.3122 15.5632 10.9567 14.9249 10.2465C14.5949 9.879 14.4307 9.696 14.2252 9.57675C14.1342 9.52429 14.0379 9.48155 13.9379 9.44925C13.7114 9.375 13.4654 9.375 12.9719 9.375H9.56243V7.875H13.1249C14.1779 7.875 14.7052 7.875 15.0832 7.62225C15.247 7.51278 15.3877 7.3721 15.4972 7.20825C15.7499 6.83025 15.7499 6.303 15.7499 5.25C15.7499 4.197 15.7499 3.66975 15.4972 3.29175C15.3877 3.1279 15.247 2.98722 15.0832 2.87775C14.7052 2.625 14.1779 2.625 13.1249 2.625H9.56243V1.5ZM6.74993 4.6875C6.60074 4.6875 6.45767 4.74676 6.35218 4.85225C6.24669 4.95774 6.18743 5.10082 6.18743 5.25C6.18743 5.39918 6.24669 5.54226 6.35218 5.64775C6.45767 5.75324 6.60074 5.8125 6.74993 5.8125H11.2499C11.3991 5.8125 11.5422 5.75324 11.6477 5.64775C11.7532 5.54226 11.8124 5.39918 11.8124 5.25C11.8124 5.10082 11.7532 4.95774 11.6477 4.85225C11.5422 4.74676 11.3991 4.6875 11.2499 4.6875H6.74993ZM6.18743 12C6.18743 11.8508 6.24669 11.7077 6.35218 11.6023C6.45767 11.4968 6.60074 11.4375 6.74993 11.4375H11.2499C11.3991 11.4375 11.5422 11.4968 11.6477 11.6023C11.7532 11.7077 11.8124 11.8508 11.8124 12C11.8124 12.1492 11.7532 12.2923 11.6477 12.3977C11.5422 12.5032 11.3991 12.5625 11.2499 12.5625H6.74993C6.60074 12.5625 6.45767 12.5032 6.35218 12.3977C6.24669 12.2923 6.18743 12.1492 6.18743 12Z" fill="currentColor"/>
</svg>
