<svg width="22" height="22" viewBox="0 0 22 22" fill="none"
    xmlns="http://www.w3.org/2000/svg">
    <path d="M11.6875 1.83301C11.6875 1.65067 11.6151 1.4758 11.4861 1.34687C11.3572 1.21794 11.1823 1.14551 11 1.14551C10.8177 1.14551 10.6428 1.21794 10.5139 1.34687C10.3849 1.4758 10.3125 1.65067 10.3125 1.83301H11.6875ZM10.3125 1.83301V2.74967H11.6875V1.83301H10.3125ZM11.6875 10.083C11.6875 9.90067 11.6151 9.7258 11.4861 9.59687C11.3572 9.46794 11.1823 9.39551 11 9.39551C10.8177 9.39551 10.6428 9.46794 10.5139 9.59687C10.3849 9.7258 10.3125 9.90067 10.3125 10.083H11.6875ZM10.3125 10.083V10.9997H11.6875V10.083H10.3125ZM11.6875 18.333C11.6875 18.1507 11.6151 17.9758 11.4861 17.8469C11.3572 17.7179 11.1823 17.6455 11 17.6455C10.8177 17.6455 10.6428 17.7179 10.5139 17.8469C10.3849 17.9758 10.3125 18.1507 10.3125 18.333H11.6875ZM10.3125 18.333V20.1663H11.6875V18.333H10.3125Z" fill="currentColor"/>
    <path d="M3.0583 17.0598C3.19209 17.26 3.36403 17.432 3.5643 17.5658C4.0263 17.8747 4.67071 17.8747 5.95771 17.8747H15.854C16.4572 17.8747 16.7579 17.8747 17.0347 17.7848C17.1569 17.7453 17.2745 17.6931 17.3858 17.629C17.637 17.4823 17.8386 17.2587 18.241 16.8095C19.0202 15.9414 19.4107 15.5078 19.5051 15C19.546 14.7794 19.546 14.5532 19.5051 14.3327C19.4107 13.8258 19.0211 13.3913 18.241 12.5232C17.8377 12.074 17.637 11.8503 17.3858 11.7046C17.2745 11.6405 17.1569 11.5883 17.0347 11.5488C16.7579 11.458 16.4572 11.458 15.854 11.458H5.95771C4.67071 11.458 4.0263 11.458 3.5643 11.7669C3.36403 11.9007 3.19209 12.0727 3.0583 12.2729C2.83371 12.6093 2.7723 13.0429 2.7558 13.7497M18.9423 8.80976C18.8085 9.01002 18.6366 9.18197 18.4363 9.31576C17.9743 9.62467 17.3299 9.62467 16.0429 9.62467H6.14655C5.54338 9.62467 5.24271 9.62468 4.96588 9.53484C4.84371 9.49535 4.72604 9.44311 4.6148 9.37901C4.36363 9.23234 4.16196 9.00867 3.75955 8.55951C2.97946 7.69142 2.58988 7.25784 2.49546 6.75001C2.45464 6.52944 2.45464 6.30325 2.49546 6.08267C2.58988 5.57576 2.97946 5.14126 3.75955 4.27317C4.16196 3.82401 4.36363 3.60034 4.6148 3.45459C4.72604 3.3905 4.84372 3.33827 4.96588 3.29876C5.24271 3.20801 5.54338 3.20801 6.14655 3.20801H16.0429C17.3299 3.20801 17.9743 3.20801 18.4363 3.51692C18.6366 3.65072 18.8085 3.82266 18.9423 4.02292C19.1669 4.35934 19.2283 4.79292 19.2448 5.49967M12.8327 20.1663H9.16605" stroke="currentColor" stroke-width="1.5" stroke-linecap="round"/>
</svg>
