<svg width="22" height="22" viewBox="0 0 22 22" fill="none" xmlns="http://www.w3.org/2000/svg">
<path d="M11.9154 19.2497H5.4987C3.76986 19.2497 2.90636 19.2497 2.3692 18.7125C1.83203 18.1753 1.83203 17.3118 1.83203 15.583C1.83203 13.8542 1.83203 12.9907 2.3692 12.4535C2.90636 11.9163 3.76986 11.9163 5.4987 11.9163H16.4987C18.2275 11.9163 19.091 11.9163 19.6282 12.4535C20.1654 12.9907 20.1654 13.8542 20.1654 15.583C20.1654 17.3118 20.1654 18.1753 19.6282 18.7125C19.091 19.2497 18.2275 19.2497 16.4987 19.2497H15.582M10.082 1.83301H16.4987C18.2275 1.83301 19.091 1.83301 19.6282 2.37017C20.1654 2.90734 20.1654 3.77084 20.1654 5.49967C20.1654 7.22851 20.1654 8.09201 19.6282 8.62917C19.091 9.16634 18.2275 9.16634 16.4987 9.16634H5.4987C3.76986 9.16634 2.90636 9.16634 2.3692 8.62917C1.83203 8.09201 1.83203 7.22851 1.83203 5.49967C1.83203 3.77084 1.83203 2.90734 2.3692 2.37017C2.90636 1.83301 3.76986 1.83301 5.4987 1.83301H6.41536M12.3737 5.49967H16.4987M5.4987 6.41634V4.58301M8.2487 6.41634V4.58301M12.3737 15.583H16.4987M5.4987 16.4997V14.6663M8.2487 16.4997V14.6663" stroke="#8B909A" stroke-width="1.5" stroke-linecap="round"/>
</svg>
