<svg width="22" height="22" viewBox="0 0 22 22" fill="none" xmlns="http://www.w3.org/2000/svg">
<path d="M11 13.75C12.5188 13.75 13.75 12.5188 13.75 11C13.75 9.48122 12.5188 8.25 11 8.25C9.48122 8.25 8.25 9.48122 8.25 11C8.25 12.5188 9.48122 13.75 11 13.75Z" stroke="#8B909A" stroke-width="1.5"/>
<path d="M3.35779 9.75301C3.79138 10.0243 4.07004 10.4882 4.07004 10.9997C4.07004 11.5112 3.79138 11.975 3.35779 12.2463C3.06354 12.4324 2.87288 12.58 2.73813 12.756C2.59154 12.9471 2.48404 13.1651 2.42176 13.3978C2.35947 13.6304 2.34363 13.873 2.37513 14.1118C2.42279 14.4729 2.63638 14.8433 3.06263 15.583C3.49071 16.3228 3.70429 16.6922 3.99304 16.9149C4.18411 17.0615 4.40218 17.169 4.63481 17.2313C4.86743 17.2936 5.11005 17.3094 5.34879 17.2779C5.56879 17.2486 5.79154 17.1588 6.09954 16.9956C6.31997 16.875 6.56743 16.8123 6.8187 16.8136C7.06997 16.8149 7.31678 16.8801 7.53596 17.0029C7.97871 17.2596 8.24179 17.7317 8.26013 18.2432C8.27296 18.5915 8.30596 18.8298 8.39121 19.0343C8.48335 19.2568 8.61845 19.4591 8.78879 19.6294C8.95913 19.7998 9.16138 19.9349 9.38396 20.027C9.72038 20.1663 10.1475 20.1663 11.0019 20.1663C11.8562 20.1663 12.2834 20.1663 12.6198 20.027C12.8424 19.9349 13.0446 19.7998 13.215 19.6294C13.3853 19.4591 13.5204 19.2568 13.6125 19.0343C13.6969 18.8298 13.7308 18.5915 13.7436 18.2432C13.762 17.7317 14.025 17.2587 14.4678 17.0029C14.687 16.8801 14.9338 16.8149 15.1851 16.8136C15.4363 16.8123 15.6838 16.875 15.9042 16.9956C16.2122 17.1588 16.4359 17.2486 16.6559 17.2779C17.1378 17.3413 17.6251 17.2107 18.0107 16.9149C18.2995 16.6931 18.513 16.3228 18.9402 15.583C19.1309 15.253 19.2785 14.9973 19.3885 14.7828M18.646 12.2473C18.4313 12.1168 18.2534 11.934 18.1288 11.7159C18.0042 11.4979 17.9371 11.2517 17.9337 11.0006C17.9337 10.4882 18.2124 10.0243 18.646 9.75209C18.9402 9.56692 19.13 9.41934 19.2656 9.24334C19.4122 9.05227 19.5197 8.8342 19.582 8.60158C19.6443 8.36895 19.6601 8.12634 19.6286 7.88759C19.581 7.52642 19.3674 7.15609 18.9411 6.41634C18.513 5.67659 18.2995 5.30717 18.0107 5.08442C17.8196 4.93784 17.6016 4.83034 17.3689 4.76805C17.1363 4.70577 16.8937 4.68992 16.655 4.72142C16.435 4.75076 16.2122 4.84059 15.9033 5.00376C15.683 5.12422 15.4357 5.18675 15.1846 5.18546C14.9335 5.18418 14.6869 5.11913 14.4678 4.99642C14.2519 4.868 14.0721 4.68681 13.9455 4.46986C13.8188 4.25292 13.7493 4.00733 13.7436 3.75617C13.7308 3.40784 13.6978 3.16951 13.6125 2.96509C13.5204 2.74251 13.3853 2.54026 13.215 2.36992C13.0446 2.19958 12.8424 2.06448 12.6198 1.97234C12.2834 1.83301 11.8562 1.83301 11.0019 1.83301C10.1475 1.83301 9.72038 1.83301 9.38396 1.97234C9.16138 2.06448 8.95913 2.19958 8.78879 2.36992C8.61845 2.54026 8.48335 2.74251 8.39121 2.96509C8.30688 3.16951 8.27296 3.40784 8.26013 3.75617C8.25442 4.00733 8.18496 4.25292 8.05829 4.46986C7.93162 4.68681 7.75188 4.868 7.53596 4.99642C7.31678 5.1193 7.06997 5.18443 6.8187 5.18572C6.56743 5.187 6.31997 5.12439 6.09954 5.00376C5.79154 4.84059 5.56788 4.75076 5.34788 4.72142C4.866 4.65806 4.37869 4.78862 3.99304 5.08442C3.70521 5.30717 3.49071 5.67659 3.06354 6.41634C2.87288 6.74634 2.72529 7.00209 2.61529 7.21659" stroke="#8B909A" stroke-width="1.5" stroke-linecap="round"/>
</svg>
