<svg width="22" height="22" viewBox="0 0 22 22" fill="none" xmlns="http://www.w3.org/2000/svg">
<path d="M14.6654 14.6755L14.6745 14.6654M5.4987 14.6755L5.50786 14.6654M18.332 20.1663V7.33301M18.332 7.33301H16.4987V1.83301H20.1654V7.33301H18.332ZM14.6654 18.333H2.38203C2.23616 18.333 2.09627 18.2751 1.99312 18.1719C1.88998 18.0688 1.83203 17.9289 1.83203 17.783V11.5497C1.83203 11.4038 1.88998 11.2639 1.99312 11.1608C2.09627 11.0576 2.23616 10.9997 2.38203 10.9997H14.6654M12.832 7.33301H5.4987M12.832 1.83301H5.4987C4.52624 1.83301 3.59361 2.21932 2.90597 2.90695C2.21834 3.59458 1.83203 4.52721 1.83203 5.49967V7.33301" stroke="#8B909A" stroke-width="1.5" stroke-linecap="round" stroke-linejoin="round"/>
<path d="M3.20703 18.333V20.0747C3.20703 20.2205 3.26498 20.3604 3.36812 20.4636C3.47127 20.5667 3.61116 20.6247 3.75703 20.6247H6.3237C6.46957 20.6247 6.60946 20.5667 6.71261 20.4636C6.81575 20.3604 6.8737 20.2205 6.8737 20.0747V18.333M13.2904 18.333V20.0747C13.2904 20.2205 13.3483 20.3604 13.4515 20.4636C13.5546 20.5667 13.6945 20.6247 13.8404 20.6247H14.6654" stroke="#8B909A" stroke-width="1.5" stroke-linecap="round"/>
</svg>
