<svg width="18" height="18" viewBox="0 0 18 18" fill="none" xmlns="http://www.w3.org/2000/svg">
<path fill-rule="evenodd" clip-rule="evenodd" d="M10.5069 14.2523L10.5114 12.75C10.5114 12.5506 10.5906 12.3593 10.7316 12.2183C10.8726 12.0773 11.0639 11.9981 11.2633 11.9981C11.4627 11.9981 11.6539 12.0773 11.795 12.2183C11.936 12.3593 12.0152 12.5506 12.0152 12.75V14.2327C12.0152 14.5935 12.0152 14.7743 12.1307 14.8853C12.2469 14.9955 12.4232 14.988 12.7779 14.973C14.1752 14.9138 15.0339 14.7255 15.6384 14.121C16.2459 13.5165 16.4342 12.6577 16.4934 11.2582C16.5047 10.9807 16.5107 10.8412 16.4589 10.749C16.4064 10.6567 16.2002 10.5413 15.7862 10.3095C15.553 10.1795 15.3587 9.98957 15.2235 9.75935C15.0883 9.52914 15.017 9.26699 15.017 9C15.017 8.73301 15.0883 8.47086 15.2235 8.24065C15.3587 8.01043 15.553 7.82051 15.7862 7.6905C16.2002 7.4595 16.4072 7.34325 16.4589 7.251C16.5107 7.15875 16.5047 7.02 16.4927 6.74175C16.4342 5.34225 16.2452 4.48425 15.6384 3.879C14.9807 3.222 14.0222 3.05625 12.3969 3.01425C12.3472 3.01295 12.2976 3.02163 12.2513 3.03978C12.2049 3.05792 12.1627 3.08517 12.127 3.11992C12.0914 3.15466 12.063 3.19619 12.0437 3.24207C12.0244 3.28794 12.0144 3.33722 12.0144 3.387V5.25C12.0144 5.44941 11.9352 5.64065 11.7942 5.78166C11.6532 5.92266 11.462 6.00187 11.2625 6.00187C11.0631 6.00187 10.8719 5.92266 10.7309 5.78166C10.5899 5.64065 10.5107 5.44941 10.5107 5.25L10.5054 3.37425C10.5052 3.27492 10.4656 3.17973 10.3953 3.10957C10.325 3.03941 10.2297 3 10.1304 3H7.49642C4.66142 3 3.24392 3 2.36267 3.879C1.75517 4.4835 1.56692 5.34225 1.50767 6.74175C1.49642 7.01925 1.49042 7.15875 1.54217 7.251C1.59467 7.34325 1.80092 7.4595 2.21492 7.6905C2.44812 7.82051 2.64238 8.01043 2.7776 8.24065C2.91283 8.47086 2.98413 8.73301 2.98413 9C2.98413 9.26699 2.91283 9.52914 2.7776 9.75935C2.64238 9.98957 2.44812 10.1795 2.21492 10.3095C1.80092 10.5413 1.59392 10.6567 1.54217 10.749C1.49042 10.8412 1.49642 10.98 1.50842 11.2575C1.56692 12.6578 1.75592 13.5165 2.36267 14.121C3.24392 15 4.66142 15 7.49717 15H9.75467C10.1087 15 10.2849 15 10.3952 14.8905C10.5054 14.781 10.5062 14.6055 10.5069 14.2523ZM12.0144 9.75V8.25C12.0144 8.05059 11.9352 7.85935 11.7942 7.71834C11.6532 7.57734 11.462 7.49813 11.2625 7.49813C11.0631 7.49813 10.8719 7.57734 10.7309 7.71834C10.5899 7.85935 10.5107 8.05059 10.5107 8.25V9.75C10.5107 9.94951 10.5899 10.1408 10.731 10.2819C10.8721 10.423 11.0634 10.5023 11.2629 10.5023C11.4624 10.5023 11.6538 10.423 11.7948 10.2819C11.9359 10.1408 12.0144 9.94951 12.0144 9.75Z" fill="#72788D"/>
</svg>
